<?xml version="1.0" encoding="UTF-8" standalone="no"?>
<!-- Created with Inkscape (http://www.inkscape.org/) -->
<svg
   xmlns:dc="http://purl.org/dc/elements/1.1/"
   xmlns:cc="http://web.resource.org/cc/"
   xmlns:rdf="http://www.w3.org/1999/02/22-rdf-syntax-ns#"
   xmlns:svg="http://www.w3.org/2000/svg"
   xmlns="http://www.w3.org/2000/svg"
   xmlns:sodipodi="http://sodipodi.sourceforge.net/DTD/sodipodi-0.dtd"
   xmlns:inkscape="http://www.inkscape.org/namespaces/inkscape"
   width="70.363281"
   height="76.439705"
   id="svg2"
   sodipodi:version="0.32"
   inkscape:version="0.44.1"
   version="1.0"
   sodipodi:docbase="C:\Documents and Settings\Tracy\My Documents\SVG"
   sodipodi:docname="U+2103.svg">
  <defs
     id="defs4" />
  <sodipodi:namedview
     id="base"
     pagecolor="#ffffff"
     bordercolor="#666666"
     borderopacity="1.0"
     gridtolerance="10000"
     guidetolerance="10"
     objecttolerance="10"
     inkscape:pageopacity="0.0"
     inkscape:pageshadow="2"
     inkscape:zoom="4.9319916"
     inkscape:cx="35.181621"
     inkscape:cy="38.21986"
     inkscape:document-units="px"
     inkscape:current-layer="layer1"
     inkscape:window-width="853"
     inkscape:window-height="573"
     inkscape:window-x="176"
     inkscape:window-y="232" />
  <metadata
     id="metadata7">
    <rdf:RDF>
      <cc:Work
         rdf:about="">
        <dc:format>image/svg+xml</dc:format>
        <dc:type
           rdf:resource="http://purl.org/dc/dcmitype/StillImage" />
      </cc:Work>
    </rdf:RDF>
  </metadata>
  <g
     inkscape:label="Layer 1"
     inkscape:groupmode="layer"
     id="layer1"
     transform="translate(-201.762,-456.2973)">
    <path
       transform="matrix(7.51481,0,0,7.51481,-1314.439,-2972.692)"
       style=""
       d="M 210.23438,457.51629 L 210.84375,459.63738 L 210.65625,459.71941 C 210.2578,458.98504 209.82812,458.46551 209.36719,458.16082 C 208.9453,457.92645 208.43749,457.80536 207.84375,457.79754 C 207.28124,457.79754 206.76171,458.00848 206.28516,458.43035 C 205.88671,458.78192 205.59375,459.22332 205.40625,459.75457 C 205.15625,460.3952 205.03125,461.11785 205.03125,461.92254 C 205.03125,462.82098 205.17968,463.56707 205.47656,464.16082 C 205.74218,464.66082 206.05078,465.05144 206.40234,465.33269 C 206.86328,465.71551 207.45312,465.90691 208.17188,465.90691 C 208.6953,465.90691 209.18359,465.73894 209.63672,465.40301 C 210.08983,465.06707 210.52343,464.51629 210.9375,463.75066 L 211.125,463.79754 C 210.82812,464.5241 210.49999,465.08269 210.14063,465.47332 C 209.74218,465.89519 209.36327,466.17254 209.00391,466.30535 C 208.69921,466.41472 208.32812,466.46941 207.89063,466.46941 C 207.21874,466.46941 206.6289,466.28582 206.12109,465.91863 C 205.5039,465.52019 205.02734,464.95769 204.69141,464.23113 C 204.41797,463.59051 204.28125,462.87176 204.28125,462.07488 C 204.28125,461.19207 204.42187,460.40692 204.70313,459.71941 C 204.98437,459.03192 205.4375,458.43817 206.0625,457.93816 C 206.62499,457.62567 207.21874,457.46942 207.84375,457.46941 C 208.19531,457.46942 208.55468,457.52801 208.92188,457.64519 C 209.22655,457.74676 209.42968,457.79754 209.53125,457.79754 C 209.72655,457.79754 209.96093,457.70379 210.23438,457.51629 L 210.23438,457.51629 z M 203.0625,456.29754 C 203.41406,456.29755 203.72265,456.42645 203.98828,456.68426 C 204.24609,456.9577 204.375,457.2702 204.375,457.62176 C 204.375,457.96551 204.24609,458.26629 203.98828,458.5241 C 203.72265,458.78973 203.41406,458.92254 203.0625,458.92254 C 202.71094,458.92254 202.39844,458.78973 202.125,458.5241 C 201.88281,458.26629 201.76172,457.96551 201.76172,457.62176 C 201.76172,457.2702 201.88281,456.9577 202.125,456.68426 C 202.39844,456.42645 202.71094,456.29755 203.0625,456.29754 L 203.0625,456.29754 z M 203.0625,458.65301 C 203.33594,458.65301 203.57812,458.54754 203.78906,458.3366 C 203.99218,458.12567 204.09375,457.88739 204.09375,457.62176 C 204.09375,457.34051 203.99218,457.09442 203.78906,456.88347 C 203.57812,456.68817 203.33594,456.59051 203.0625,456.59051 C 202.78125,456.59051 202.53906,456.68817 202.33594,456.88347 C 202.13281,457.09442 202.03125,457.34051 202.03125,457.62176 C 202.03125,457.88739 202.13281,458.12567 202.33594,458.3366 C 202.53906,458.54754 202.78125,458.65301 203.0625,458.65301 L 203.0625,458.65301 z "
       id="flowRoot1880" />
  </g>
</svg>
